<svg xmlns="http://www.w3.org/2000/svg" viewBox="0 0 790 470" width="790" height="470" font-family="-apple-system,BlinkMacSystemFont,'Segoe UI',Helvetica,Arial,sans-serif">
<title>water vapour, I+z', differential</title>
<rect width="790" height="470" fill="#ffffff"/>
<text x="92.0" y="32.0" font-size="15" fill="#16181d" text-anchor="start" font-weight="600">I+z': what SURVIVES the ratio, against 5800 K comparisons</text>
<text x="92.0" y="50.0" font-size="11" fill="#6b7280" text-anchor="start" font-weight="400">This is the part that limits a transit. A grey term cancels in a ratio; a colour-dependent one does not.</text>
<line x1="92.0" y1="396.0" x2="652.0" y2="396.0" stroke="#e3e6ea" stroke-width="1"/>
<text x="84.0" y="400.0" font-size="11" fill="#6b7280" text-anchor="end" font-weight="400">0</text>
<line x1="92.0" y1="319.2" x2="652.0" y2="319.2" stroke="#e3e6ea" stroke-width="1"/>
<text x="84.0" y="323.2" font-size="11" fill="#6b7280" text-anchor="end" font-weight="400">10</text>
<line x1="92.0" y1="242.5" x2="652.0" y2="242.5" stroke="#e3e6ea" stroke-width="1"/>
<text x="84.0" y="246.5" font-size="11" fill="#6b7280" text-anchor="end" font-weight="400">20</text>
<line x1="92.0" y1="165.7" x2="652.0" y2="165.7" stroke="#e3e6ea" stroke-width="1"/>
<text x="84.0" y="169.7" font-size="11" fill="#6b7280" text-anchor="end" font-weight="400">30</text>
<line x1="92.0" y1="88.9" x2="652.0" y2="88.9" stroke="#e3e6ea" stroke-width="1"/>
<text x="84.0" y="92.9" font-size="11" fill="#6b7280" text-anchor="end" font-weight="400">40</text>
<line x1="180.4" y1="66.0" x2="180.4" y2="396.0" stroke="#e3e6ea" stroke-width="1"/>
<text x="180.4" y="414.0" font-size="11" fill="#6b7280" text-anchor="middle" font-weight="400">2</text>
<line x1="298.3" y1="66.0" x2="298.3" y2="396.0" stroke="#e3e6ea" stroke-width="1"/>
<text x="298.3" y="414.0" font-size="11" fill="#6b7280" text-anchor="middle" font-weight="400">4</text>
<line x1="416.2" y1="66.0" x2="416.2" y2="396.0" stroke="#e3e6ea" stroke-width="1"/>
<text x="416.2" y="414.0" font-size="11" fill="#6b7280" text-anchor="middle" font-weight="400">6</text>
<line x1="534.1" y1="66.0" x2="534.1" y2="396.0" stroke="#e3e6ea" stroke-width="1"/>
<text x="534.1" y="414.0" font-size="11" fill="#6b7280" text-anchor="middle" font-weight="400">8</text>
<line x1="652.0" y1="66.0" x2="652.0" y2="396.0" stroke="#e3e6ea" stroke-width="1"/>
<text x="652.0" y="414.0" font-size="11" fill="#6b7280" text-anchor="middle" font-weight="400">10</text>
<line x1="92.0" y1="396.0" x2="652.0" y2="396.0" stroke="#16181d" stroke-width="1.4"/>
<line x1="92.0" y1="66.0" x2="92.0" y2="396.0" stroke="#16181d" stroke-width="1.4"/>
<text x="372.0" y="436.0" font-size="12" fill="#16181d" text-anchor="middle" font-weight="400">precipitable water vapour  (mm)</text>
<text transform="translate(46,231.0) rotate(-90)" font-size="12" fill="#16181d" text-anchor="middle">loss  (mmag)</text>
<path d="M 92.00 396.00 L 123.11 353.02 L 154.22 322.43 L 185.33 298.22 L 216.44 274.78 L 247.56 255.65 L 278.67 237.54 L 309.78 222.02 L 340.89 206.30 L 372.00 192.15 L 403.11 179.82 L 434.22 167.37 L 465.33 154.79 L 496.44 142.07 L 527.56 131.32 L 558.67 121.23 L 589.78 111.06 L 620.89 100.80 L 652.00 90.44" fill="none" stroke="#0b3d91" stroke-width="2.2" stroke-linejoin="round" stroke-linecap="round"/>
<circle cx="652.0" cy="90.4" r="3" fill="#0b3d91"/>
<path d="M 92.00 396.00 L 123.11 367.67 L 154.22 347.54 L 185.33 331.61 L 216.44 316.20 L 247.56 303.64 L 278.67 291.75 L 309.78 281.57 L 340.89 271.26 L 372.00 261.99 L 403.11 253.91 L 434.22 245.75 L 465.33 237.52 L 496.44 229.20 L 527.56 222.17 L 558.67 215.57 L 589.78 208.92 L 620.89 202.22 L 652.00 195.46" fill="none" stroke="#1f77b4" stroke-width="2.2" stroke-linejoin="round" stroke-linecap="round"/>
<circle cx="652.0" cy="195.5" r="3" fill="#1f77b4"/>
<path d="M 92.00 396.00 L 123.11 377.36 L 154.22 364.13 L 185.33 353.66 L 216.44 343.54 L 247.56 335.29 L 278.67 327.48 L 309.78 320.80 L 340.89 314.04 L 372.00 307.96 L 403.11 302.66 L 434.22 297.32 L 465.33 291.92 L 496.44 286.47 L 527.56 281.87 L 558.67 277.55 L 589.78 273.19 L 620.89 268.80 L 652.00 264.38" fill="none" stroke="#2ca02c" stroke-width="2.2" stroke-linejoin="round" stroke-linecap="round"/>
<circle cx="652.0" cy="264.4" r="3" fill="#2ca02c"/>
<path d="M 92.00 396.00 L 123.11 385.83 L 154.22 378.63 L 185.33 372.92 L 216.44 367.41 L 247.56 362.92 L 278.67 358.67 L 309.78 355.04 L 340.89 351.36 L 372.00 348.05 L 403.11 345.17 L 434.22 342.27 L 465.33 339.33 L 496.44 336.37 L 527.56 333.87 L 558.67 331.52 L 589.78 329.16 L 620.89 326.78 L 652.00 324.38" fill="none" stroke="#bcbd22" stroke-width="2.2" stroke-linejoin="round" stroke-linecap="round"/>
<circle cx="652.0" cy="324.4" r="3" fill="#bcbd22"/>
<path d="M 92.00 396.00 L 123.11 392.47 L 154.22 389.97 L 185.33 387.99 L 216.44 386.08 L 247.56 384.53 L 278.67 383.06 L 309.78 381.80 L 340.89 380.52 L 372.00 379.38 L 403.11 378.38 L 434.22 377.37 L 465.33 376.36 L 496.44 375.33 L 527.56 374.47 L 558.67 373.65 L 589.78 372.84 L 620.89 372.01 L 652.00 371.18" fill="none" stroke="#ff7f0e" stroke-width="2.2" stroke-linejoin="round" stroke-linecap="round"/>
<circle cx="652.0" cy="371.2" r="3" fill="#ff7f0e"/>
<path d="M 92.00 396.00 L 123.11 396.00 L 154.22 396.00 L 185.33 396.00 L 216.44 396.00 L 247.56 396.00 L 278.67 396.00 L 309.78 396.00 L 340.89 396.00 L 372.00 396.00 L 403.11 396.00 L 434.22 396.00 L 465.33 396.00 L 496.44 396.00 L 527.56 396.00 L 558.67 396.00 L 589.78 396.00 L 620.89 396.00 L 652.00 396.00" fill="none" stroke="#d62728" stroke-width="2.2" stroke-linejoin="round" stroke-linecap="round"/>
<circle cx="652.0" cy="396.0" r="3" fill="#d62728"/>
<text x="660.0" y="94.4" font-size="11" fill="#0b3d91" text-anchor="start" font-weight="600">2000 K</text>
<text x="660.0" y="106.4" font-size="9.5" fill="#6b7280" text-anchor="start" font-weight="400">39.8</text>
<text x="660.0" y="199.5" font-size="11" fill="#1f77b4" text-anchor="start" font-weight="600">2600 K</text>
<text x="660.0" y="211.5" font-size="9.5" fill="#6b7280" text-anchor="start" font-weight="400">26.1</text>
<text x="660.0" y="268.4" font-size="11" fill="#2ca02c" text-anchor="start" font-weight="600">3200 K</text>
<text x="660.0" y="280.4" font-size="9.5" fill="#6b7280" text-anchor="start" font-weight="400">17.1</text>
<text x="660.0" y="328.4" font-size="11" fill="#bcbd22" text-anchor="start" font-weight="600">4000 K</text>
<text x="660.0" y="340.4" font-size="9.5" fill="#6b7280" text-anchor="start" font-weight="400">9.3</text>
<text x="660.0" y="375.2" font-size="11" fill="#ff7f0e" text-anchor="start" font-weight="600">5000 K</text>
<text x="660.0" y="387.2" font-size="9.5" fill="#6b7280" text-anchor="start" font-weight="400">3.2</text>
<text x="660.0" y="400.0" font-size="11" fill="#d62728" text-anchor="start" font-weight="600">6000 K</text>
<text x="660.0" y="412.0" font-size="9.5" fill="#6b7280" text-anchor="start" font-weight="400">-0.7</text>
<text x="100.0" y="410.0" font-size="10" fill="#6b7280" text-anchor="start" font-weight="400">at 5800 K the line would be exactly zero: a colour-matched ensemble cancels the water identically</text>
</svg>