<svg xmlns="http://www.w3.org/2000/svg" viewBox="0 0 800 520" width="800" height="520" font-family="-apple-system,BlinkMacSystemFont,'Segoe UI',Helvetica,Arial,sans-serif">
<title>where the split falls</title>
<rect width="800" height="520" fill="#ffffff"/>
<text x="92.0" y="32.0" font-size="15" fill="#16181d" text-anchor="start" font-weight="600">The one term the instrument controls: where the red flank falls</text>
<text x="92.0" y="50.0" font-size="11" fill="#6b7280" text-anchor="start" font-weight="400">blue edge held at 750 nm, 2600 K target against 5800 K comparisons, airmass 1.2</text>
<text x="92.0" y="66.0" font-size="11" fill="#6b7280" text-anchor="start" font-weight="400">Three telescopes, two of which carry measured QE curves. They agree, because the shape belongs to the 940 nm water band.</text>
<line x1="92.0" y1="408.0" x2="692.0" y2="408.0" stroke="#e3e6ea" stroke-width="1"/>
<text x="84.0" y="412.0" font-size="11" fill="#6b7280" text-anchor="end" font-weight="400">0</text>
<line x1="92.0" y1="338.5" x2="692.0" y2="338.5" stroke="#e3e6ea" stroke-width="1"/>
<text x="84.0" y="342.5" font-size="11" fill="#6b7280" text-anchor="end" font-weight="400">1,000</text>
<line x1="92.0" y1="269.1" x2="692.0" y2="269.1" stroke="#e3e6ea" stroke-width="1"/>
<text x="84.0" y="273.1" font-size="11" fill="#6b7280" text-anchor="end" font-weight="400">2,000</text>
<line x1="92.0" y1="199.6" x2="692.0" y2="199.6" stroke="#e3e6ea" stroke-width="1"/>
<text x="84.0" y="203.6" font-size="11" fill="#6b7280" text-anchor="end" font-weight="400">3,000</text>
<line x1="92.0" y1="130.2" x2="692.0" y2="130.2" stroke="#e3e6ea" stroke-width="1"/>
<text x="84.0" y="134.2" font-size="11" fill="#6b7280" text-anchor="end" font-weight="400">4,000</text>
<line x1="92.0" y1="408.0" x2="92.0" y2="413.0" stroke="#6b7280" stroke-width="1"/>
<text x="92.0" y="426.0" font-size="10" fill="#6b7280" text-anchor="middle" font-weight="400">900</text>
<line x1="152.0" y1="408.0" x2="152.0" y2="413.0" stroke="#6b7280" stroke-width="1"/>
<text x="152.0" y="426.0" font-size="10" fill="#6b7280" text-anchor="middle" font-weight="400">920</text>
<line x1="212.0" y1="408.0" x2="212.0" y2="413.0" stroke="#6b7280" stroke-width="1"/>
<text x="212.0" y="426.0" font-size="10" fill="#6b7280" text-anchor="middle" font-weight="400">940</text>
<line x1="257.0" y1="408.0" x2="257.0" y2="413.0" stroke="#6b7280" stroke-width="1"/>
<text x="257.0" y="426.0" font-size="10" fill="#6b7280" text-anchor="middle" font-weight="400">955</text>
<line x1="302.0" y1="408.0" x2="302.0" y2="413.0" stroke="#6b7280" stroke-width="1"/>
<text x="302.0" y="426.0" font-size="10" fill="#6b7280" text-anchor="middle" font-weight="400">970</text>
<line x1="347.0" y1="408.0" x2="347.0" y2="413.0" stroke="#6b7280" stroke-width="1"/>
<text x="347.0" y="426.0" font-size="10" fill="#6b7280" text-anchor="middle" font-weight="400">985</text>
<line x1="392.0" y1="408.0" x2="392.0" y2="413.0" stroke="#6b7280" stroke-width="1"/>
<text x="392.0" y="426.0" font-size="10" fill="#6b7280" text-anchor="middle" font-weight="400">1000</text>
<line x1="452.0" y1="408.0" x2="452.0" y2="413.0" stroke="#6b7280" stroke-width="1"/>
<text x="452.0" y="426.0" font-size="10" fill="#6b7280" text-anchor="middle" font-weight="400">1020</text>
<line x1="542.0" y1="408.0" x2="542.0" y2="413.0" stroke="#6b7280" stroke-width="1"/>
<text x="542.0" y="426.0" font-size="10" fill="#6b7280" text-anchor="middle" font-weight="400">1050</text>
<line x1="692.0" y1="408.0" x2="692.0" y2="413.0" stroke="#6b7280" stroke-width="1"/>
<text x="692.0" y="426.0" font-size="10" fill="#6b7280" text-anchor="middle" font-weight="400">1100</text>
<line x1="257.0" y1="78.0" x2="257.0" y2="408.0" stroke="#d62728" stroke-width="2"/>
<text x="257.0" y="74.0" font-size="10.5" fill="#d62728" text-anchor="middle" font-weight="700">DUET splits here, 955 nm</text>
<path d="M 92.00 392.90 L 152.00 352.52 L 212.00 251.12 L 257.00 166.03 L 302.00 129.74 L 347.00 158.26 L 392.00 192.65 L 452.00 250.83 L 542.00 306.37 L 692.00 374.09" fill="none" stroke="#0b3d91" stroke-width="2.4" stroke-linejoin="round" stroke-linecap="round"/>
<circle cx="92.0" cy="392.9" r="2.4" fill="#0b3d91"/>
<circle cx="152.0" cy="352.5" r="2.4" fill="#0b3d91"/>
<circle cx="212.0" cy="251.1" r="2.4" fill="#0b3d91"/>
<circle cx="257.0" cy="166.0" r="2.4" fill="#0b3d91"/>
<circle cx="302.0" cy="129.7" r="2.4" fill="#0b3d91"/>
<circle cx="347.0" cy="158.3" r="2.4" fill="#0b3d91"/>
<circle cx="392.0" cy="192.7" r="2.4" fill="#0b3d91"/>
<circle cx="452.0" cy="250.8" r="2.4" fill="#0b3d91"/>
<circle cx="542.0" cy="306.4" r="2.4" fill="#0b3d91"/>
<circle cx="692.0" cy="374.1" r="2.4" fill="#0b3d91"/>
<text x="698.0" y="378.1" font-size="10" fill="#0b3d91" text-anchor="start" font-weight="600">RC20</text>
<path d="M 92.00 392.90 L 152.00 352.52 L 212.00 251.12 L 257.00 166.03 L 302.00 129.74 L 347.00 158.26 L 392.00 192.65 L 452.00 250.83 L 542.00 306.37 L 692.00 374.09" fill="none" stroke="#2ca02c" stroke-width="1.8" stroke-linejoin="round" stroke-linecap="round" stroke-dasharray="7 4"/>
<circle cx="92.0" cy="392.9" r="2.4" fill="#2ca02c"/>
<circle cx="152.0" cy="352.5" r="2.4" fill="#2ca02c"/>
<circle cx="212.0" cy="251.1" r="2.4" fill="#2ca02c"/>
<circle cx="257.0" cy="166.0" r="2.4" fill="#2ca02c"/>
<circle cx="302.0" cy="129.7" r="2.4" fill="#2ca02c"/>
<circle cx="347.0" cy="158.3" r="2.4" fill="#2ca02c"/>
<circle cx="392.0" cy="192.7" r="2.4" fill="#2ca02c"/>
<circle cx="452.0" cy="250.8" r="2.4" fill="#2ca02c"/>
<circle cx="542.0" cy="306.4" r="2.4" fill="#2ca02c"/>
<circle cx="692.0" cy="374.1" r="2.4" fill="#2ca02c"/>
<text x="698.0" y="392.1" font-size="10" fill="#2ca02c" text-anchor="start" font-weight="600">VLT FORS2</text>
<path d="M 92.00 392.90 L 152.00 352.52 L 212.00 251.12 L 257.00 166.03 L 302.00 129.74 L 347.00 158.26 L 392.00 192.65 L 452.00 250.83 L 542.00 306.37 L 692.00 374.09" fill="none" stroke="#d62728" stroke-width="1.8" stroke-linejoin="round" stroke-linecap="round" stroke-dasharray="2 3"/>
<circle cx="92.0" cy="392.9" r="2.4" fill="#d62728"/>
<circle cx="152.0" cy="352.5" r="2.4" fill="#d62728"/>
<circle cx="212.0" cy="251.1" r="2.4" fill="#d62728"/>
<circle cx="257.0" cy="166.0" r="2.4" fill="#d62728"/>
<circle cx="302.0" cy="129.7" r="2.4" fill="#d62728"/>
<circle cx="347.0" cy="158.3" r="2.4" fill="#d62728"/>
<circle cx="392.0" cy="192.7" r="2.4" fill="#d62728"/>
<circle cx="452.0" cy="250.8" r="2.4" fill="#d62728"/>
<circle cx="542.0" cy="306.4" r="2.4" fill="#d62728"/>
<circle cx="692.0" cy="374.1" r="2.4" fill="#d62728"/>
<text x="698.0" y="406.1" font-size="10" fill="#d62728" text-anchor="start" font-weight="600">VLT SPHERE</text>
<text x="698.0" y="430.0" font-size="9" fill="#6b7280" text-anchor="start" font-weight="400">they overlap:</text>
<text x="698.0" y="442.0" font-size="9" fill="#6b7280" text-anchor="start" font-weight="400">that is</text>
<text x="698.0" y="454.0" font-size="9" fill="#6b7280" text-anchor="start" font-weight="400">the point</text>
<circle cx="302.0" cy="129.7" r="5.5" fill="#d62728"/>
<text x="302.0" y="117.7" font-size="10" fill="#d62728" text-anchor="middle" font-weight="600">worst at 970 nm</text>
<line x1="92.0" y1="408.0" x2="692.0" y2="408.0" stroke="#16181d" stroke-width="1.4"/>
<line x1="92.0" y1="88.0" x2="92.0" y2="408.0" stroke="#16181d" stroke-width="1.4"/>
<text x="392.0" y="448.0" font-size="12" fill="#16181d" text-anchor="middle" font-weight="400">red edge of the blue arm  (nm)</text>
<text transform="translate(36,248.0) rotate(-90)" font-size="12" fill="#16181d" text-anchor="middle">differential water  (umag per mm of PWV)</text>
<text x="92.0" y="476.0" font-size="10.5" fill="#16181d" text-anchor="start" font-weight="600">A factor of 15 to 18 across 200 nm, and the split sits at about 88 % of the worst point.</text>
<text x="92.0" y="492.0" font-size="10.5" fill="#6b7280" text-anchor="start" font-weight="400">Moving the cut 35 nm bluer would cost a quarter as much water. Whether that trade is worth it is an instrument</text>
<text x="92.0" y="506.0" font-size="10.5" fill="#6b7280" text-anchor="start" font-weight="400">question - but it can now be made against a number instead of an intuition.</text>
</svg>